<?xml version="1.0" encoding="UTF-8"?>
<svg id="Layer_2" data-name="Layer 2" xmlns="http://www.w3.org/2000/svg" viewBox="0 0 846.91 411.74">
  <defs>
    <style>
      .cls-1 {
        fill: #5d5957;
      }

      .cls-1, .cls-2, .cls-3, .cls-4, .cls-5, .cls-6, .cls-7, .cls-8, .cls-9, .cls-10 {
        stroke-width: 0px;
      }

      .cls-2 {
        fill: #5c554c;
      }

      .cls-3 {
        fill: #6d6967;
      }

      .cls-4 {
        fill: #544f4d;
      }

      .cls-5 {
        fill: #393532;
      }

      .cls-6 {
        fill: #574f4c;
      }

      .cls-7 {
        fill: #45413f;
      }

      .cls-8 {
        fill: #41413f;
      }

      .cls-9 {
        fill: #d93333;
      }

      .cls-10 {
        fill: #686564;
      }
    </style>
  </defs>
  <g id="Layer_1-2" data-name="Layer 1">
    <g>
      <path class="cls-5" d="m328.88,254.7c30.37-.1,60.74-.39,91.11-.83,110.22-1.61,220.42-4.94,330.64-5.99.8-8.25.94-17,.35-25.71-.89-13.12-3.42-26.11-7.62-38.84-4.2-12.73-10.07-25.19-19.39-38.9-9.31-13.7-22.07-28.64-36.09-42.45-14.02-13.81-29.31-26.5-44.6-37.17-15.29-10.67-30.59-19.34-48.43-27.33-8.92-4-18.47-7.83-27.94-11.23-9.47-3.41-18.85-6.39-27.42-8.7-17.15-4.62-31.06-6.52-40.25-8.06-9.19-1.54-13.66-2.72-18.28-4.16-4.62-1.45-9.4-3.16-14.96-4.19s-11.91-1.37-17.93-.94c-6.01.43-11.69,1.62-16.63,3.45-4.93,1.82-9.12,4.27-11.94,6.21-2.82,1.94-4.26,3.36-6.8,4.71-2.54,1.35-6.16,2.64-12.69,5-6.53,2.36-15.97,5.8-24.5,9.75-8.54,3.94-16.17,8.39-23.39,13.85s-14,11.94-19.84,18.98c-5.84,7.04-10.72,14.63-14.6,22.22-3.88,7.6-6.75,15.19-9.31,23.69-2.55,8.5-4.78,17.91-6.93,24.48-2.14,6.57-4.2,10.28-8.92,16.59-4.72,6.31-12.12,15.21-21.93,22.24s-22.04,12.2-33.22,15.3c-11.18,3.1-21.32,4.14-33.82,4.12-12.5-.02-27.37-1.09-40.92-1.89-13.54-.8-25.76-1.33-39.23-1.49-13.47-.16-28.19.04-38.64.56-10.46.51-16.65,1.34-22.28,3.26-5.63,1.93-10.69,4.95-14.76,8.94-4.07,3.98-7.13,8.92-9.15,13.52-2.01,4.6-2.97,8.86-2.37,13.6.6,4.74,2.74,9.97,5.63,14.54,2.89,4.56,6.53,8.46,11.64,12.02s11.72,6.8,20.26,8.86c8.54,2.06,19,2.95,31.1,1.9,12.1-1.05,25.82-4.02,41.64-7.4,15.81-3.38,33.71-7.16,49.66-10.7,15.95-3.55,29.94-6.86,42.52-8.67,12.59-1.81,23.77-2.1,34.2-1.52,10.43.58,20.12,2.05,28.88,4.69,8.76,2.64,16.59,6.47,21.28,9.23,2.85,1.68,4.54,2.97,5.87,4.47Zm-158.36-32.7c-2.44,1.68-7.21,4.35-14.62,7.08-7.42,2.73-17.48,5.51-27.44,7.51-9.96,1.99-19.81,3.2-26.92,3.27-7.11.07-11.47-.99-15.59-2.26-4.11-1.26-7.97-2.72-10.12-4.14-2.15-1.42-2.59-2.8-2.45-4.58s.85-3.97,2.51-6.29c1.66-2.32,4.26-4.76,8.84-6.6,4.58-1.84,11.14-3.08,19.79-3.75s19.4-.76,29.82-.32c10.42.43,20.5,1.4,26.59,2.26,4.19.59,6.49,1.13,7.97,1.67.67.24,1.17.48,1.6.73,1.37.78,2.02,1.59,2.29,2.33.27.75.17,1.43-2.27,3.11Z"/>
      <path class="cls-1" d="m328.88,254.7c30.37-.1,60.74-.39,91.11-.83,110.22-1.61,220.42-4.94,330.64-5.99.8-8.25.94-17,.35-25.71-.89-13.12-3.42-26.11-7.62-38.84-4.2-12.73-10.07-25.19-19.39-38.9-9.31-13.7-22.07-28.64-36.09-42.45-14.02-13.81-29.31-26.5-44.6-37.17-15.29-10.67-30.59-19.34-48.43-27.33-8.92-4-18.47-7.83-27.94-11.23-9.47-3.41-18.85-6.39-27.42-8.7-17.15-4.62-31.06-6.52-40.25-8.06-9.19-1.54-13.66-2.72-18.28-4.16-4.62-1.45-9.4-3.16-14.96-4.19s-11.91-1.37-17.93-.94c-6.01.43-11.69,1.62-16.63,3.45-4.93,1.82-9.12,4.27-11.94,6.21-2.82,1.94-4.26,3.36-6.8,4.71-2.54,1.35-6.16,2.64-12.69,5-6.53,2.36-15.97,5.8-24.5,9.75-8.54,3.94-16.17,8.39-23.39,13.85s-14,11.94-19.84,18.98c-5.84,7.04-10.72,14.63-14.6,22.22-3.88,7.6-6.75,15.19-9.31,23.69-2.55,8.5-4.78,17.91-6.93,24.48-2.14,6.57-4.2,10.28-8.92,16.59-4.72,6.31-12.12,15.21-21.93,22.24s-22.04,12.2-33.22,15.3c-11.18,3.1-21.32,4.14-33.82,4.12-12.5-.02-27.37-1.09-40.92-1.89-13.54-.8-25.76-1.33-39.23-1.49-13.47-.16-28.19.04-38.64.56-10.46.51-16.65,1.34-22.28,3.26-5.63,1.93-10.69,4.95-14.76,8.94-4.07,3.98-7.13,8.92-9.15,13.52-2.01,4.6-2.97,8.86-2.37,13.6.6,4.74,2.74,9.97,5.63,14.54,2.89,4.56,6.53,8.46,11.64,12.02s11.72,6.8,20.26,8.86c8.54,2.06,19,2.95,31.1,1.9,12.1-1.05,25.82-4.02,41.64-7.4,15.81-3.38,33.71-7.16,49.66-10.7,15.95-3.55,29.94-6.86,42.52-8.67,12.59-1.81,23.77-2.1,34.2-1.52,10.43.58,20.12,2.05,28.88,4.69,8.76,2.64,16.59,6.47,21.28,9.23,2.85,1.68,4.54,2.97,5.87,4.47Zm-158.36-32.7c-2.44,1.68-7.21,4.35-14.62,7.08-7.42,2.73-17.48,5.51-27.44,7.51-9.96,1.99-19.81,3.2-26.92,3.27-7.11.07-11.47-.99-15.59-2.26-4.11-1.26-7.97-2.72-10.12-4.14-2.15-1.42-2.59-2.8-2.45-4.58s.85-3.97,2.51-6.29c1.66-2.32,4.26-4.76,8.84-6.6,4.58-1.84,11.14-3.08,19.79-3.75s19.4-.76,29.82-.32c10.42.43,20.5,1.4,26.59,2.26,4.19.59,6.49,1.13,7.97,1.67.67.24,1.17.48,1.6.73,1.37.78,2.02,1.59,2.29,2.33.27.75.17,1.43-2.27,3.11Z"/>
      <path class="cls-8" d="m321.75,183.69c2.47,8.94,5.92,16.94,9.75,24.5,3.83,7.56,8.03,14.68,11.68,20.52,3.65,5.84,6.76,10.41,12.38,17.17,2.17,2.61,4.72,5.55,7.5,8.63,18.98-.15,37.95-.37,56.92-.65,105.44-1.54,210.85-4.66,316.29-5.85.57-3.09.92-5.98,1.14-8.73.43-5.48.34-10.39-.31-17.37-.65-6.98-1.85-16.05-3.81-24.59-1.96-8.54-4.69-16.57-8.15-25.15-3.46-8.58-7.66-17.71-12.91-26.5-5.25-8.79-11.57-17.24-19.94-26.37-8.37-9.12-18.8-18.91-28.99-27.6-10.18-8.69-20.11-16.29-30.1-22.9-9.99-6.61-20.05-12.24-29.7-17.22-9.65-4.98-18.88-9.3-29.11-13.05-10.23-3.75-21.46-6.92-30.81-9.13-9.35-2.21-16.81-3.45-23.1-4.35-6.29-.9-11.42-1.44-14.83-1.63-3.41-.19-5.11-.02-6.46.36-1.36.38-2.38.96-6.41,3.65-4.03,2.69-11.08,7.49-18.2,11.7-7.12,4.2-14.31,7.8-19.48,9.18-5.17,1.38-8.32.53-12.93-1.84-4.61-2.38-10.69-6.29-15.46-9.01-4.77-2.72-8.25-4.26-11.31-5.14-3.06-.88-5.71-1.12-10.21,0-4.5,1.12-10.85,3.58-17.82,6.97s-14.56,7.71-21.31,12.48c-6.75,4.77-12.65,9.98-18.05,14.8-5.4,4.82-10.3,9.24-15.19,16.26-4.89,7.01-9.78,16.62-12.72,24.19s-3.92,13.12-4.23,20.77c-.31,7.66.07,17.43.99,27.25.93,9.83,2.41,19.71,4.88,28.65Z"/>
      <path class="cls-10" d="m344.06,230.09c3.29,5.19,6.34,9.59,11.5,15.79,2.17,2.61,4.72,5.55,7.5,8.63,18.98-.15,37.95-.37,56.92-.65,77.73-1.14,155.44-3.13,233.16-4.57-.8-4-1.89-8.15-3.31-12.45-5.66-17.09-16.59-36.47-27.98-51.75-11.39-15.28-23.24-26.45-40.06-37.38-13.67-8.88-30.61-17.59-48.26-23.91-4.07-1.46-8.18-2.79-12.3-3.96-21.95-6.26-44.07-8.11-63.28-7.28-19.21.82-35.52,4.32-49.71,10.41-14.19,6.09-26.26,14.77-35.38,24.3-9.12,9.54-15.3,19.93-19.85,30.9-4.55,10.97-7.49,22.53-8.55,31.71-1.06,9.18-.25,15.98-.18,18.75.02.93-.04,1.39-.21,1.46Z"/>
      <path class="cls-3" d="m340.12,223.57c.24.44.46.85.69,1.28-.19-.31-.37-.6-.56-.91-.04-.12-.09-.24-.13-.37Z"/>
      <path class="cls-10" d="m341.39,225.91c2.29,4.23,2.96,5.49,2.89,2.72-.07-2.77-.88-9.57.18-18.75,1.06-9.18,3.99-20.74,8.55-31.71,4.55-10.97,10.73-21.37,19.85-30.9,9.12-9.54,21.19-18.22,35.38-24.3,14.19-6.09,30.5-9.58,49.71-10.41,19.21-.83,41.33,1.02,63.28,7.28,21.95,6.26,43.75,16.94,60.57,27.87,16.82,10.93,28.67,22.1,40.06,37.38,11.39,15.28,22.32,34.67,27.98,51.75,1.42,4.3,2.51,8.45,3.31,12.45,9.69-.18,19.38-.35,29.08-.51-1.26-12.99-4.85-27.31-9.88-40.05-5.43-13.75-12.54-25.66-21.08-35.85-8.54-10.19-18.52-18.66-32.92-29.53-14.4-10.87-33.22-24.14-51.17-33.64-17.94-9.5-35.01-15.22-51.82-18.82-16.81-3.6-33.36-5.07-50.52-4.32-17.15.75-34.9,3.73-50.81,8.39-15.91,4.66-29.98,10.99-42.62,20.69-12.64,9.7-23.84,22.76-31.05,36.03-7.21,13.27-10.43,26.76-11.28,36.07-.85,9.3.66,14.43,3.38,20.59s6.64,13.37,8.93,17.6Z"/>
      <path class="cls-4" d="m315.91,180.93c2.3,9.15,5.92,17.77,10.16,26.62,4.24,8.85,9.12,17.92,14.29,25.88,4.85,7.47,9.99,13.96,16.7,21.12,2-.01,4-.02,6-.04-2.78-3.08-5.33-6.02-7.5-8.63-5.62-6.76-8.73-11.33-12.38-17.17-3.65-5.84-7.85-12.96-11.68-20.52-3.83-7.56-7.28-15.56-9.75-24.5-2.47-8.94-3.95-18.82-4.88-28.65-.93-9.83-1.3-19.6-.99-27.25.31-7.66,1.29-13.2,4.23-20.77,2.94-7.57,7.83-17.18,12.72-24.19,4.89-7.01,9.79-11.44,15.19-16.26,5.4-4.82,11.3-10.03,18.05-14.8,6.75-4.77,14.34-9.09,21.31-12.48,6.97-3.39,13.32-5.86,17.82-6.97,4.5-1.12,7.15-.88,10.21,0,3.06.88,6.54,2.42,11.31,5.14,4.77,2.72,10.85,6.63,15.46,9.01,4.61,2.38,7.76,3.22,12.93,1.84,5.17-1.38,12.36-4.98,19.48-9.18,7.12-4.2,14.17-9,18.2-11.7,4.03-2.69,5.05-3.27,6.41-3.65,1.36-.38,3.05-.54,6.46-.36,3.41.19,8.54.74,14.83,1.63,6.29.9,13.76,2.14,23.1,4.35,9.35,2.21,20.57,5.38,30.81,9.13,10.23,3.75,19.46,8.07,29.11,13.05,9.65,4.98,19.7,10.61,29.7,17.22,9.99,6.61,19.92,14.21,30.1,22.9s20.61,18.48,28.99,27.6c8.37,9.12,14.68,17.57,19.94,26.37,5.25,8.79,9.45,17.92,12.91,26.5,3.46,8.58,6.19,16.61,8.15,25.15,1.96,8.54,3.17,17.61,3.81,24.59s.74,11.89.31,17.37c-.22,2.75-.57,5.64-1.14,8.73,1.21-.01,2.42-.03,3.62-.04.66-4.39,1.06-8.88,1.35-13.56.45-7.25.63-14.95-1.24-25.76-1.87-10.81-5.78-24.73-9.65-35.18-3.87-10.45-7.69-17.43-11.91-24.7-4.22-7.27-8.84-14.83-13.75-21.77-4.91-6.94-10.12-13.27-17.26-20.22-7.14-6.95-16.21-14.53-25.65-21.87-9.44-7.35-19.25-14.47-28.94-20.54-9.68-6.07-19.24-11.09-28.58-15.73-9.33-4.65-18.44-8.93-28.18-12.64-2.43-.93-4.91-1.82-7.39-2.68-7.44-2.56-14.93-4.77-21.53-6.49-8.81-2.3-16.05-3.76-23.11-4.93-7.06-1.17-13.93-2.06-19.33-2.63s-9.34-.84-12.29-.84c-2.95,0-4.92.27-8.2,2.83-3.28,2.56-7.87,7.42-11.21,10.19-3.33,2.77-5.41,3.45-5.77,2.76-.36-.69.99-2.75,2.23-4.94,1.25-2.2,2.39-4.53,3.29-6.75.9-2.22,1.55-4.32,1.07-5.82-.48-1.49-2.09-2.38-6.03-3.18-3.93-.8-10.18-1.52-15.28-1.48-5.1.05-9.06.86-13.84,2.86-4.78,1.99-10.4,5.16-16.31,7.61-5.91,2.45-12.13,4.18-17.77,5.87-5.64,1.69-10.7,3.32-15.94,5.5-5.24,2.18-10.65,4.89-16.36,8.4-5.71,3.51-11.72,7.83-17.34,12.28-5.63,4.45-10.87,9.04-15.78,13.89-4.91,4.85-9.48,9.97-13.65,17.17-4.17,7.2-7.94,16.49-10.42,25.38-2.48,8.89-3.66,17.38-4.03,24.22-.37,6.84.06,12.03.77,19.44s1.71,17.13,4.01,26.28Z"/>
      <path class="cls-8" d="m348.31,222.86c2.69.11,6.11-7.01,9.88-14.28,3.77-7.28,7.88-14.72,13.31-21.82,5.43-7.11,12.18-13.89,19.03-19.34,6.85-5.45,13.79-9.57,22.14-13.19,8.35-3.62,18.09-6.73,28.76-8.79,10.67-2.06,22.25-3.08,34.49-3.14,12.25-.06,25.15.84,39.97,4.44,14.82,3.6,31.54,9.89,46.31,17.22,14.77,7.32,27.59,15.67,39.05,25.83,11.45,10.16,21.53,22.12,28.48,32.81,6.23,9.59,9.93,18.15,12.43,26.9,3.66-.07,7.33-.14,10.99-.2-.8-4-1.89-8.15-3.31-12.45-5.66-17.09-16.59-36.47-27.98-51.75-11.39-15.28-23.24-26.45-40.06-37.38-13.67-8.88-30.61-17.59-48.26-23.91-4.07-1.46-8.18-2.79-12.3-3.96-21.95-6.26-44.07-8.11-63.28-7.28-19.21.82-35.52,4.32-49.71,10.41-14.19,6.09-26.26,14.77-35.38,24.3-9.12,9.54-15.3,19.93-19.85,30.9-4.55,10.97-7.49,22.53-8.55,31.71-.17,1.5-.28,2.92-.37,4.29.88,5.1,2.37,8.62,4.22,8.69Z"/>
      <path class="cls-7" d="m328.88,254.7c4.65-.01,9.3-.03,13.95-.05-1.2-.89-2.38-1.76-3.54-2.59-6.15-4.4-11.71-7.92-20.93-11.75-9.22-3.83-22.09-7.98-34.99-9.19-12.9-1.21-25.84.52-44.17,3.56-18.33,3.04-42.06,7.39-62.01,11.4-19.95,4.01-36.12,7.69-49.37,10.12s-23.58,3.61-32.44,3.84c-8.86.23-16.24-.5-22.02-1.72s-9.96-2.94-13.89-5.2c-3.93-2.25-7.6-5.05-10.94-8.2-3.34-3.15-6.35-6.66-9.91-12.9-.74-1.3-1.53-2.75-2.33-4.19.69,4.6,2.76,9.59,5.54,13.98,2.89,4.56,6.53,8.46,11.64,12.02s11.72,6.8,20.26,8.86c8.54,2.06,19,2.95,31.1,1.9,12.1-1.05,25.82-4.02,41.64-7.4,15.81-3.38,33.71-7.16,49.66-10.7,15.95-3.55,29.94-6.86,42.52-8.67,12.59-1.81,23.77-2.1,34.2-1.52,10.43.58,20.12,2.05,28.88,4.69,8.76,2.64,16.59,6.47,21.28,9.23,2.85,1.68,4.54,2.97,5.87,4.47Z"/>
      <path class="cls-6" d="m155.31,210.1c5.84.73,11.27,1.46,17.27.76,6-.69,12.55-2.81,13.44-4.43.89-1.61-3.9-2.72-12.3-4.27-8.4-1.54-20.4-3.52-32.04-4.95-11.64-1.44-22.91-2.33-32.67-2.33-9.76,0-18.02.9-24.57,2.15-6.55,1.26-11.4,2.87-14.8,4.95-3.39,2.09-5.33,4.64-6.66,7.63-1.33,2.98-2.04,6.39-2.21,9.68s.21,6.48,1.35,8.83c1.14,2.34,3.04,3.84,5.76,5.48,2.72,1.64,6.25,3.41,10.78,4.94,4.54,1.53,10.08,2.81,14.95,3.54,4.87.73,9.08.92,14.67.49,5.6-.43,12.58-1.48,20.37-2.9,7.78-1.42,16.36-3.22,25.64-5.69,9.28-2.46,19.25-5.59,25.94-8.22,6.69-2.63,10.1-4.76,13.11-7.04,3-2.28,5.6-4.7,6.37-5.54s-.32-.11-2.55,1.42c-2.23,1.54-5.62,3.88-9.6,5.91-3.98,2.03-8.56,3.74-14.62,5.73-6.06,1.99-13.59,4.27-22.25,6.45-8.66,2.18-18.46,4.25-26.27,5.61-7.81,1.36-13.64,2.01-18.08,2.2-4.44.18-7.49-.1-10.69-.54-3.2-.44-6.55-1.03-10.16-2.02-3.61-.99-7.48-2.38-10.34-3.77-2.86-1.38-4.7-2.76-5.69-4.54-.99-1.78-1.12-3.96.02-6.14,1.14-2.18,3.55-4.37,7.33-6.67,3.78-2.3,8.92-4.73,14.72-6.15,5.8-1.42,12.26-1.85,19.94-2.14,7.68-.29,16.59-.45,24.16-.16,7.58.28,13.83,1,19.67,1.73Z"/>
      <path class="cls-2" d="m265.4,231.15c-7.71.61-16.12,1.86-26.2,3.53-18.33,3.04-42.06,7.39-62.01,11.4-19.95,4.01-36.12,7.69-49.37,10.12-13.25,2.43-23.58,3.61-32.44,3.84-8.86.23-16.24-.5-22.02-1.72-5.78-1.22-9.96-2.94-13.89-5.2-3.93-2.25-7.6-5.05-10.94-8.2-3.34-3.15-6.35-6.66-9.91-12.9,0,0,0-.02-.01-.02,2.11,1.14,4.15,2.26,5.97,3.25,9.45,5.12,14.13,6.81,20.2,8.89,6.07,2.08,13.52,4.55,21.24,5.7,7.72,1.15,15.72.97,26.44-.26,10.72-1.23,24.15-3.53,38.65-6.09,14.5-2.57,30.07-5.42,44.91-7.66,14.84-2.24,28.96-3.88,39.56-4.8,10.6-.92,17.69-1.12,22.79-.86,2.79.14,4.97.41,7.05,1.01Zm9.78,5.31s.03.02.04.03c-.8-.06-1.57-.14-2.37-.19.78.04,1.56.1,2.33.16Zm-79.06,10.03c-7.97,1.77-16.43,3.6-24.88,5.42,8.44-1.81,16.91-3.64,24.88-5.42Zm-61.13,13.14c-3.7.77-7.28,1.49-10.74,2.14,3.46-.65,7.04-1.37,10.74-2.14Zm-98.01-28.51s0,0,.01,0c.17.62.36,1.24.57,1.87-.21-.63-.41-1.25-.59-1.87Zm.68,2.15c.17.49.36.99.55,1.48-.2-.49-.38-.99-.55-1.48Zm.64,1.69c.23.57.47,1.13.73,1.7-.26-.56-.5-1.13-.73-1.7Zm75.92,28.51c-1.62.24-3.21.46-4.77.64,1.56-.19,3.15-.4,4.77-.64Zm-4.77.64c-1.56.19-3.1.35-4.61.48,1.51-.13,3.05-.29,4.61-.48Zm-4.61.48c-1.51.13-3,.23-4.46.3,1.46-.07,2.95-.17,4.46-.3Zm-4.46.3c-1.46.07-2.9.11-4.3.13,1.41-.02,2.84-.06,4.3-.13Zm-4.3.13c-1.41.02-2.79,0-4.14-.03,1.35.04,2.74.05,4.14.03Zm-4.14-.03c-1.35-.04-2.68-.1-3.98-.19,1.3.09,2.63.15,3.98.19Zm-3.98-.19c-1.3-.09-2.57-.2-3.81-.33,1.24.13,2.51.25,3.81.33Zm-3.81-.33c-1.24-.13-2.46-.29-3.64-.47,1.19.18,2.4.33,3.64.47Zm-3.64-.47c-1.19-.18-2.34-.38-3.47-.6,1.13.22,2.28.42,3.47.6Zm-3.47-.6c-1.13-.22-2.22-.46-3.29-.72,1.07.26,2.16.5,3.29.72Zm-3.29-.72c-1.07-.26-2.1-.53-3.11-.83,1.01.29,2.04.57,3.11.83Zm-3.11-.83c-1.01-.29-1.99-.6-2.94-.93.95.32,1.93.63,2.94.93Zm-2.94-.93c-.95-.32-1.87-.66-2.76-1.02.89.35,1.81.69,2.76,1.02Zm-2.76-1.02c-.89-.35-1.76-.72-2.6-1.1.84.38,1.71.74,2.6,1.1Zm-25.85-23.19c.23.5.48,1,.73,1.5-.25-.5-.5-1-.73-1.5Zm.89,1.81c.58,1.11,1.2,2.21,1.87,3.27-.67-1.06-1.29-2.15-1.87-3.27Z"/>
      <path class="cls-2" d="m262.2,176.61c-5.99,8.46-11.23,13.99-16.66,17.86-5.88,4.19-11.99,6.47-17.95,7.79-5.96,1.31-11.78,1.66-16.93,1.54-5.14-.12-9.61-.71-13.74-1.53-4.13-.82-7.92-1.88-16.18-3.37-8.26-1.49-20.99-3.42-32.26-4.88-11.27-1.46-21.09-2.44-34.98-3.83-6.57-.65-14.04-1.4-21.02-2.54,9.37-.29,20.49-.39,30.92-.26,13.47.16,25.69.69,39.23,1.49,13.54.8,28.41,1.87,40.92,1.89,12.5.02,22.64-1.02,33.82-4.12,8.17-2.27,16.9-5.65,24.83-10.04Z"/>
    </g>
    <g>
      <path class="cls-9" d="m58.98,274.25h24.21v137.49h-24.21v-53.03H24.21v53.03H0v-137.49h24.21v51.07h34.77v-51.07Z"/>
      <path class="cls-9" d="m94.24,274.25h69.53v33.39h-45.32v19.64h42.84v30.44h-42.84v20.62h45.94v33.39h-70.15v-137.49Z"/>
      <path class="cls-9" d="m197.79,274.25h26.69l33.52,137.49h-26.69l-4.97-21.61h-31.79l-4.84,21.61h-26.07l34.14-137.49Zm21.85,86.42l-8.82-38.3h-1.24l-8.57,38.3h18.62Z"/>
      <path class="cls-9" d="m246.09,274.25h26.69l19.25,88.39h1.24l16.14-88.39h26.07l-30.42,137.49h-26.69l-32.28-137.49Z"/>
      <path class="cls-9" d="m392.47,274.25h26.07l-31.66,88.39v49.1h-24.21v-49.1l-32.9-88.39h27.94l17.26,50.09h1.24l16.27-50.09Z"/>
      <path class="cls-9" d="m442.51,274.25h32.9l15.89,79.55h1.24l15.89-79.55h32.9v137.49h-24.21v-77.58h-1.24l-15.27,77.58h-17.38l-15.27-77.58h-1.24v77.58h-24.21v-137.49Z"/>
      <path class="cls-9" d="m552.39,274.25h69.53v33.39h-45.32v19.64h42.84v30.44h-42.84v20.62h45.94v33.39h-70.15v-137.49Z"/>
      <path class="cls-9" d="m649.11,307.64h-26.69v-33.39h77.6v33.39h-26.69v104.1h-24.21v-104.1Z"/>
      <path class="cls-9" d="m718.52,274.25h26.69l33.52,137.49h-26.69l-4.97-21.61h-31.79l-4.84,21.61h-26.07l34.14-137.49Zm21.85,86.42l-8.82-38.3h-1.24l-8.57,38.3h18.62Z"/>
      <path class="cls-9" d="m781.72,274.25h24.21v104.1h40.97v33.39h-65.18v-137.49Z"/>
    </g>
  </g>
</svg>